<?xml version="1.0" encoding="UTF-8"?>
<svg viewBox="0 0 16 16" version="1.1" xmlns="http://www.w3.org/2000/svg" xmlns:xlink="http://www.w3.org/1999/xlink">
    <title>icon/首页/下拉备份 27</title>
    <g id="主界面" stroke="none" stroke-width="1" fill="none" fill-rule="evenodd">
        <g id="icon" transform="translate(-88.000000, -89.000000)" fill="#FFFFFF" fill-rule="nonzero">
            <g id="icon/首页/下拉备份-35" transform="translate(88.000000, 89.000000)">
                <g id="icon/首页/下拉备份-27" transform="translate(1.000000, 2.000000)">
                    <path d="M13.8369766,4.96484375 L7.89166406,0.30234375 C7.38385156,-0.10078125 6.58697656,-0.10078125 6.07916406,0.30234375 L0.177601563,4.96796875 C-0.025523437,5.12890625 -0.058335937,5.42109375 0.099476563,5.62109375 C0.257289063,5.82109375 0.552601563,5.85703125 0.752601563,5.69921875 L0.943226563,5.54921875 L0.943226563,11.1882813 C0.943226563,11.9867188 1.77135156,12.5851563 2.51197656,12.5851563 L11.8229141,12.5851563 C12.5541641,12.5851563 13.0463516,12.0242188 13.0463516,11.1882813 L13.0463516,5.53359375 L13.2572891,5.69921875 C13.3416641,5.76640625 13.4432266,5.79921875 13.5447891,5.79921875 C13.6822891,5.79921875 13.8197891,5.73984375 13.9119766,5.62109375 C14.0760391,5.41796875 14.0369766,5.12578125 13.8369766,4.96484375 Z M8.39478906,10.6789062 L8.39478906,11.6492187 L5.60103906,11.6492187 L5.60103906,9.04453125 C5.60103906,8.50390625 6.03853906,7.92109375 6.99791406,7.92109375 C7.95885156,7.92109375 8.39478906,8.50390625 8.39478906,9.04453125 L8.39478906,10.6789062 L8.39478906,10.6789062 Z" id="形状"></path>
                </g>
            </g>
        </g>
    </g>
</svg>